<svg width="14" height="24" viewBox="0 0 14 24" fill="none" xmlns="http://www.w3.org/2000/svg">
<path fill-rule="evenodd" clip-rule="evenodd" d="M5.20418 1.89254C6.41329 0.680767 8.05321 0 9.76315 0H13.0789C13.5876 0 14 0.413276 14 0.923077V5.35385C14 5.86365 13.5876 6.27692 13.0789 6.27692H9.76315C9.7143 6.27692 9.66744 6.29637 9.6329 6.331C9.59835 6.36562 9.57894 6.41258 9.57894 6.46154V8.86154H13.0789C13.3626 8.86154 13.6304 8.9925 13.8049 9.21654C13.9795 9.44059 14.0413 9.73273 13.9725 10.0085L12.8672 14.4393C12.7647 14.8502 12.3963 15.1385 11.9737 15.1385H9.57894V23.0769C9.57894 23.5867 9.16657 24 8.65789 24H4.23684C3.72816 24 3.31579 23.5867 3.31579 23.0769V15.1385H0.921052C0.412369 15.1385 0 14.7252 0 14.2154V9.78462C0 9.27481 0.412369 8.86154 0.921052 8.86154H3.31579V6.46154C3.31579 4.74783 3.99506 3.10431 5.20418 1.89254ZM9.76315 1.84615C8.54176 1.84615 7.3704 2.33242 6.50674 3.19797C5.64309 4.06352 5.15789 5.23746 5.15789 6.46154V9.78462C5.15789 10.2944 4.74552 10.7077 4.23684 10.7077H1.8421V13.2923H4.23684C4.74552 13.2923 5.15789 13.7056 5.15789 14.2154V22.1538H7.73684V14.2154C7.73684 13.7056 8.14921 13.2923 8.65789 13.2923H11.2545L11.8993 10.7077H8.65789C8.14921 10.7077 7.73684 10.2944 7.73684 9.78462V6.46154C7.73684 5.92294 7.95033 5.40641 8.33033 5.02557C8.71034 4.64473 9.22574 4.43077 9.76315 4.43077H12.1579V1.84615H9.76315Z" fill="white"/>
</svg>
