<svg width="24" height="15" viewBox="0 0 24 15" fill="none" xmlns="http://www.w3.org/2000/svg">
<path fill-rule="evenodd" clip-rule="evenodd" d="M23.809 12.2106C23.2498 11.1065 22.5129 10.0979 21.6266 9.22351C21.3251 8.87986 20.9714 8.54071 20.6954 8.27597L20.6568 8.23899C20.5144 8.1024 20.3967 7.989 20.3005 7.8913C21.5123 6.23961 22.5495 4.47096 23.3957 2.61268L23.4299 2.53771L23.4538 2.45902C23.565 2.09326 23.6931 1.39775 23.24 0.769194C22.7716 0.119525 22.0216 0.00236065 21.5194 0.00236065H19.2088C18.7271 -0.0192855 18.2502 0.108355 17.8461 0.36786C17.4389 0.629323 17.1274 1.01069 16.956 1.4565C16.4584 2.6183 15.8358 3.72336 15.0995 4.75321V2.09913C15.0995 1.75605 15.0666 1.18215 14.6918 0.697756C14.2431 0.117776 13.5942 0.00236065 13.1437 0.00236065H9.47745C9.00511 -0.00834762 8.54571 0.157205 8.19268 0.466241C7.83114 0.782722 7.60957 1.2248 7.57498 1.69873L7.5717 1.74363V1.78864C7.5717 2.27795 7.76951 2.63889 7.92754 2.86588C7.99829 2.96751 8.07397 3.06002 8.12177 3.11846L8.13281 3.13194C8.18378 3.19425 8.2178 3.23583 8.25195 3.28136C8.34177 3.40111 8.47096 3.58576 8.50751 4.06356V5.54815C7.87546 4.5297 7.2087 3.17443 6.70702 1.72696L6.69932 1.70475L6.69079 1.68283C6.56569 1.3617 6.36506 0.894436 5.96323 0.536868C5.49381 0.119145 4.93857 0.00236065 4.43362 0.00236065H2.08927C1.57843 0.00236065 0.962579 0.119502 0.503057 0.59465C0.051179 1.06189 0 1.62177 0 1.91946V2.05364L0.0288309 2.1848C0.678175 5.13906 2.01615 7.90559 3.93764 10.2681C4.80879 11.6147 5.98922 12.7434 7.38502 13.5638C8.80309 14.3972 10.4029 14.8885 12.0526 14.9972L12.0956 15H12.1388C12.8851 15 13.6632 14.9368 14.2482 14.5547C15.0375 14.0391 15.0995 13.2473 15.0995 12.8528V11.7059C15.3021 11.8664 15.5534 12.0824 15.861 12.3727C16.2329 12.7377 16.5291 13.0538 16.7831 13.3298L16.9186 13.4775L16.9194 13.4784C17.1166 13.6936 17.3108 13.9056 17.4876 14.0797C17.7098 14.2987 17.9837 14.54 18.328 14.7182C18.7009 14.9112 19.0922 14.9984 19.5079 14.9984H21.8538C22.3481 14.9984 23.057 14.8839 23.5553 14.3175C24.0985 13.7003 24.057 12.9438 23.8862 12.4001L23.8555 12.3023L23.809 12.2106ZM17.9283 12.3171C17.6642 12.0301 17.3457 11.69 16.9433 11.2955L16.94 11.2923C15.5456 9.97456 14.894 9.74495 14.4333 9.74495C14.1883 9.74495 13.9172 9.77189 13.7412 9.98674C13.6582 10.0882 13.6145 10.2105 13.59 10.338C13.5656 10.4653 13.5572 10.6147 13.5572 10.785V12.8528C13.5572 13.1096 13.5141 13.2174 13.3929 13.2966C13.2315 13.402 12.8865 13.4875 12.1474 13.4882C10.7445 13.3944 9.38422 12.976 8.17817 12.2671C6.96964 11.5569 5.95056 10.5753 5.20486 9.40336L5.19675 9.3906L5.18714 9.37888C3.39669 7.19448 2.14907 4.63199 1.54268 1.89393C1.54597 1.76194 1.57514 1.68363 1.62241 1.63476C1.67112 1.58439 1.78914 1.5142 2.08927 1.5142H4.43362C4.69441 1.5142 4.82938 1.56981 4.92651 1.65624C5.03664 1.75424 5.13215 1.92065 5.24819 2.21779C5.82361 3.87676 6.60175 5.42819 7.33861 6.56896C7.70691 7.13914 8.06938 7.61372 8.39595 7.9491C8.55897 8.11651 8.71885 8.25528 8.87142 8.3539C9.0191 8.44936 9.18651 8.52465 9.35868 8.52465C9.44954 8.52465 9.55581 8.51549 9.65812 8.47109C9.76819 8.42332 9.85361 8.34371 9.91394 8.23703C10.0207 8.04833 10.0499 7.76882 10.0499 7.40267V4.01241L10.0494 4.00446C9.99608 3.17966 9.74203 2.7157 9.49465 2.38587C9.44043 2.31358 9.38697 2.24829 9.34019 2.19115L9.32737 2.17549C9.27601 2.11271 9.23514 2.06196 9.20155 2.01372C9.14001 1.92532 9.11616 1.86369 9.11421 1.79764C9.12223 1.71924 9.15993 1.6465 9.22005 1.59387C9.28246 1.53924 9.36411 1.5108 9.44771 1.5142H13.1437C13.3556 1.5142 13.427 1.56488 13.4629 1.6113C13.5136 1.67684 13.5572 1.81313 13.5572 2.09913V6.66349C13.5572 7.20567 13.8121 7.57269 14.1824 7.57269C14.6085 7.57269 14.9157 7.31927 15.4528 6.7928L15.4617 6.78401L15.4698 6.7744C16.6736 5.33534 17.6576 3.73221 18.3899 2.01522L18.3946 2.00234C18.4497 1.85062 18.5539 1.72073 18.6913 1.63249C18.8287 1.54424 18.9918 1.50249 19.1557 1.5136L19.1646 1.5142H21.5194C21.8406 1.5142 21.9462 1.59432 21.9804 1.64169C22.0167 1.69211 22.042 1.80014 21.9802 2.01201C21.1359 3.86291 20.0918 5.6198 18.8663 7.25316L18.8586 7.26473C18.7396 7.44307 18.6091 7.64039 18.5902 7.867C18.5699 8.11032 18.6774 8.3315 18.8653 8.5686C19.0022 8.7671 19.2847 9.03811 19.5713 9.31305L19.5983 9.33897C19.8987 9.62721 20.2242 9.93946 20.4855 10.2418L20.4925 10.2498L20.5001 10.2573C21.279 11.0188 21.9267 11.8991 22.4179 12.8639C22.4963 13.1266 22.4483 13.2608 22.3874 13.3301C22.316 13.4111 22.1563 13.4866 21.8538 13.4866H19.5079C19.3247 13.4866 19.1833 13.4512 19.0482 13.3813C18.9074 13.3084 18.7626 13.1925 18.5811 13.0136C18.4348 12.8695 18.275 12.6951 18.0801 12.4825C18.0318 12.4298 17.9812 12.3746 17.9283 12.3171Z" fill="white"/>
</svg>
