<svg width="24" height="17" viewBox="0 0 24 17" fill="none" xmlns="http://www.w3.org/2000/svg">
<path fill-rule="evenodd" clip-rule="evenodd" d="M10.1311 4.4013C9.86285 4.2449 9.52875 4.2408 9.25651 4.39058C8.98427 4.54036 8.81599 4.82085 8.81599 5.12484V11.8752C8.81599 12.1792 8.98427 12.4596 9.25651 12.6094C9.52875 12.7592 9.86285 12.7551 10.1311 12.5987L15.9202 9.22354C16.1817 9.07105 16.3417 8.79639 16.3417 8.5C16.3417 8.20361 16.1817 7.92895 15.9202 7.77646L10.1311 4.4013ZM13.7856 8.5L10.5527 10.3849V6.61514L13.7856 8.5Z" fill="url(#paint0_linear_342_8759)"/>
<path fill-rule="evenodd" clip-rule="evenodd" d="M17.8245 0.221058C13.9474 -0.073686 10.0526 -0.0736862 6.17548 0.221058L3.58117 0.418282C2.00358 0.538213 0.71299 1.68712 0.452209 3.20374C-0.150736 6.71027 -0.150736 10.2897 0.452209 13.7963C0.71299 15.3129 2.00358 16.4618 3.58117 16.5817L6.17548 16.7789C10.0526 17.0737 13.9474 17.0737 17.8245 16.7789L20.4188 16.5817C21.9964 16.4618 23.287 15.3129 23.5478 13.7963C24.1507 10.2897 24.1507 6.71027 23.5478 3.20374C23.287 1.68712 21.9964 0.538213 20.4188 0.418282L17.8245 0.221058ZM6.31093 1.9035C10.0979 1.61561 13.9021 1.61561 17.6891 1.9035L20.2834 2.10072C21.0656 2.16019 21.7055 2.72986 21.8348 3.48185C22.4061 6.80426 22.4061 10.1957 21.8348 13.5181C21.7055 14.2701 21.0656 14.8398 20.2834 14.8993L17.6891 15.0965C13.9021 15.3844 10.0979 15.3844 6.31093 15.0965L3.71663 14.8993C2.9344 14.8398 2.29448 14.2701 2.16518 13.5181C1.59389 10.1957 1.59389 6.80426 2.16518 3.48185C2.29448 2.72986 2.9344 2.16019 3.71663 2.10072L6.31093 1.9035Z" fill="url(#paint1_linear_342_8759)"/>
<defs>
<linearGradient id="paint0_linear_342_8759" x1="12" y1="0" x2="12" y2="17" gradientUnits="userSpaceOnUse">
<stop stop-color="#20BCFE"/>
<stop offset="1" stop-color="#005BE3"/>
</linearGradient>
<linearGradient id="paint1_linear_342_8759" x1="12" y1="0" x2="12" y2="17" gradientUnits="userSpaceOnUse">
<stop stop-color="#20BCFE"/>
<stop offset="1" stop-color="#005BE3"/>
</linearGradient>
</defs>
</svg>
