<svg width="87" height="136" viewBox="0 0 87 136" fill="none" xmlns="http://www.w3.org/2000/svg">
<path d="M54.9389 55.3577C65.3574 56.8901 73.3056 61.1042 78.7833 68C84.2611 74.8958 87 83.5155 87 93.8592C87 101.649 85.3352 108.736 82.0056 115.121C78.6759 121.506 73.6278 126.614 66.8611 130.445C60.2019 134.148 52.0389 136 42.3722 136C34.3167 136 26.5296 134.659 19.0111 131.977C11.6 129.168 5.26296 125.337 0 120.485L9.02222 101.138C13.1037 105.224 18.0444 108.481 23.8444 110.907C29.7519 113.206 35.8204 114.355 42.05 114.355C49.4611 114.355 55.2611 112.567 59.45 108.992C63.7463 105.288 65.8944 100.308 65.8944 94.0507C65.8944 87.7934 63.8537 82.9408 59.7722 79.493C55.7981 75.9174 49.6759 74.1296 41.4056 74.1296H31.0944V57.0817L56.7111 20.8789H5.47778V0H82.3278V16.6648L54.9389 55.3577Z" fill="url(#paint0_linear_271_632)" fill-opacity="0.2"/>
<defs>
<linearGradient id="paint0_linear_271_632" x1="43.5" y1="0" x2="43.5" y2="136" gradientUnits="userSpaceOnUse">
<stop stop-color="white"/>
<stop offset="1" stop-color="white" stop-opacity="0"/>
</linearGradient>
</defs>
</svg>
