<svg width="89" height="136" viewBox="0 0 89 136" fill="none" xmlns="http://www.w3.org/2000/svg">
<path d="M89 114.93V136H4.42541V119.335L49.9908 68.7662C55.1265 63.0197 58.5685 58.0394 60.3168 53.8254C62.1743 49.4836 63.1031 45.2056 63.1031 40.9916C63.1031 34.7343 61.3002 29.9455 57.6943 26.6254C54.0884 23.3052 48.7888 21.6451 41.7956 21.6451C30.1037 21.6451 21.1436 26.3061 14.9153 35.6282L0 22.2197C4.48005 15.1962 10.4899 9.76901 18.0295 5.93803C25.6783 1.97934 34.2014 0 43.5985 0C56.0553 0 65.9988 3.44789 73.4291 10.3437C80.8594 17.2394 84.5746 26.6254 84.5746 38.5014C84.5746 45.7803 83.2634 52.6122 80.6409 58.9972C78.0184 65.3822 72.992 72.661 65.5617 80.8338L34.9116 114.93H89Z" fill="url(#paint0_linear_271_627)" fill-opacity="0.2"/>
<defs>
<linearGradient id="paint0_linear_271_627" x1="44.5" y1="0" x2="44.5" y2="136" gradientUnits="userSpaceOnUse">
<stop stop-color="white"/>
<stop offset="1" stop-color="white" stop-opacity="0"/>
</linearGradient>
</defs>
</svg>
