<svg width="229" height="130" viewBox="0 0 229 130" fill="none" xmlns="http://www.w3.org/2000/svg">
<g filter="url(#filter0_di_6_11202)">
<rect x="40.8193" y="40.0126" width="148" height="49" rx="24.5" fill="#F2F7FF"/>
<path d="M80.5953 73.1566C79.2993 73.1566 78.1393 72.8766 77.1153 72.3166C76.1073 71.7566 75.3153 70.9886 74.7393 70.0126C74.1633 69.0206 73.8753 67.9006 73.8753 66.6526C73.8753 65.4046 74.1633 64.2926 74.7393 63.3166C75.3153 62.3246 76.1073 61.5566 77.1153 61.0126C78.1393 60.4526 79.2993 60.1726 80.5953 60.1726C81.7473 60.1726 82.7713 60.4046 83.6673 60.8686C84.5793 61.3326 85.2833 62.0046 85.7793 62.8846L84.0273 64.0126C83.6273 63.4046 83.1313 62.9486 82.5393 62.6446C81.9473 62.3406 81.2913 62.1886 80.5713 62.1886C79.7393 62.1886 78.9873 62.3726 78.3153 62.7406C77.6593 63.1086 77.1393 63.6366 76.7553 64.3246C76.3873 64.9966 76.2033 65.7726 76.2033 66.6526C76.2033 67.5486 76.3873 68.3406 76.7553 69.0286C77.1393 69.7006 77.6593 70.2206 78.3153 70.5886C78.9873 70.9566 79.7393 71.1406 80.5713 71.1406C81.2913 71.1406 81.9473 70.9886 82.5393 70.6846C83.1313 70.3806 83.6273 69.9246 84.0273 69.3166L85.7793 70.4206C85.2833 71.3006 84.5793 71.9806 83.6673 72.4606C82.7713 72.9246 81.7473 73.1566 80.5953 73.1566ZM104.4 64.2046C105.36 64.5726 106.096 65.1006 106.608 65.7886C107.12 66.4766 107.376 67.3006 107.376 68.2606C107.376 69.2686 107.104 70.1486 106.56 70.9006C106.016 71.6366 105.24 72.2046 104.232 72.6046C103.224 73.0046 102.04 73.2046 100.68 73.2046C99.3356 73.2046 98.1596 73.0046 97.1516 72.6046C96.1596 72.2046 95.3916 71.6366 94.8476 70.9006C94.3036 70.1486 94.0316 69.2686 94.0316 68.2606C94.0316 67.3006 94.2796 66.4766 94.7756 65.7886C95.2876 65.1006 96.0236 64.5726 96.9836 64.2046C96.2156 63.8366 95.6316 63.3486 95.2316 62.7406C94.8316 62.1326 94.6316 61.4126 94.6316 60.5806C94.6316 59.6526 94.8796 58.8446 95.3756 58.1566C95.8876 57.4686 96.5996 56.9406 97.5116 56.5726C98.4236 56.2046 99.4796 56.0206 100.68 56.0206C101.896 56.0206 102.96 56.2046 103.872 56.5726C104.8 56.9406 105.512 57.4686 106.008 58.1566C106.52 58.8446 106.776 59.6526 106.776 60.5806C106.776 61.3966 106.568 62.1166 106.152 62.7406C105.752 63.3486 105.168 63.8366 104.4 64.2046ZM100.68 57.9646C99.5436 57.9646 98.6476 58.2126 97.9916 58.7086C97.3356 59.1886 97.0076 59.8446 97.0076 60.6766C97.0076 61.5086 97.3276 62.1646 97.9676 62.6446C98.6236 63.1246 99.5276 63.3646 100.68 63.3646C101.848 63.3646 102.76 63.1246 103.416 62.6446C104.088 62.1646 104.424 61.5086 104.424 60.6766C104.424 59.8446 104.08 59.1886 103.392 58.7086C102.72 58.2126 101.816 57.9646 100.68 57.9646ZM100.68 71.2606C102.008 71.2606 103.056 70.9886 103.824 70.4446C104.592 69.8846 104.976 69.1326 104.976 68.1886C104.976 67.2606 104.592 66.5326 103.824 66.0046C103.056 65.4606 102.008 65.1886 100.68 65.1886C99.3516 65.1886 98.3116 65.4606 97.5596 66.0046C96.8076 66.5326 96.4316 67.2606 96.4316 68.1886C96.4316 69.1326 96.8076 69.8846 97.5596 70.4446C98.3116 70.9886 99.3516 71.2606 100.68 71.2606ZM128.018 60.2926V73.0126H125.714V62.3086H120.242L120.098 65.1406C120.018 66.8526 119.866 68.2846 119.642 69.4366C119.418 70.5726 119.05 71.4846 118.538 72.1726C118.026 72.8606 117.314 73.2046 116.402 73.2046C115.986 73.2046 115.514 73.1326 114.986 72.9886L115.13 71.0446C115.338 71.0926 115.53 71.1166 115.706 71.1166C116.346 71.1166 116.826 70.8366 117.146 70.2766C117.466 69.7166 117.674 69.0526 117.77 68.2846C117.866 67.5166 117.954 66.4206 118.034 64.9966L118.25 60.2926H128.018ZM143.969 66.7246C143.969 66.9006 143.953 67.1326 143.921 67.4206H133.601C133.745 68.5406 134.233 69.4446 135.065 70.1326C135.913 70.8046 136.961 71.1406 138.209 71.1406C139.729 71.1406 140.953 70.6286 141.881 69.6046L143.153 71.0926C142.577 71.7646 141.857 72.2766 140.993 72.6286C140.145 72.9806 139.193 73.1566 138.137 73.1566C136.793 73.1566 135.601 72.8846 134.561 72.3406C133.521 71.7806 132.713 71.0046 132.137 70.0126C131.577 69.0206 131.297 67.9006 131.297 66.6526C131.297 65.4206 131.569 64.3086 132.113 63.3166C132.673 62.3246 133.433 61.5566 134.393 61.0126C135.369 60.4526 136.465 60.1726 137.681 60.1726C138.897 60.1726 139.977 60.4526 140.921 61.0126C141.881 61.5566 142.625 62.3246 143.153 63.3166C143.697 64.3086 143.969 65.4446 143.969 66.7246ZM137.681 62.1166C136.577 62.1166 135.649 62.4526 134.897 63.1246C134.161 63.7966 133.729 64.6766 133.601 65.7646H141.761C141.633 64.6926 141.193 63.8206 140.441 63.1486C139.705 62.4606 138.785 62.1166 137.681 62.1166ZM156.484 62.3086H151.828V73.0126H149.524V62.3086H144.868V60.2926H156.484V62.3086Z" fill="url(#paint0_linear_6_11202)"/>
<rect x="41.3193" y="40.5126" width="147" height="48" rx="24" stroke="url(#paint1_linear_6_11202)"/>
</g>
<defs>
<filter id="filter0_di_6_11202" x="0.819336" y="0.0125732" width="228" height="129" filterUnits="userSpaceOnUse" color-interpolation-filters="sRGB">
<feFlood flood-opacity="0" result="BackgroundImageFix"/>
<feColorMatrix in="SourceAlpha" type="matrix" values="0 0 0 0 0 0 0 0 0 0 0 0 0 0 0 0 0 0 127 0" result="hardAlpha"/>
<feOffset/>
<feGaussianBlur stdDeviation="20"/>
<feComposite in2="hardAlpha" operator="out"/>
<feColorMatrix type="matrix" values="0 0 0 0 0.124479 0 0 0 0 0.73865 0 0 0 0 0.995833 0 0 0 0.4 0"/>
<feBlend mode="normal" in2="BackgroundImageFix" result="effect1_dropShadow_6_11202"/>
<feBlend mode="normal" in="SourceGraphic" in2="effect1_dropShadow_6_11202" result="shape"/>
<feColorMatrix in="SourceAlpha" type="matrix" values="0 0 0 0 0 0 0 0 0 0 0 0 0 0 0 0 0 0 127 0" result="hardAlpha"/>
<feOffset/>
<feGaussianBlur stdDeviation="20"/>
<feComposite in2="hardAlpha" operator="arithmetic" k2="-1" k3="1"/>
<feColorMatrix type="matrix" values="0 0 0 0 1 0 0 0 0 1 0 0 0 0 1 0 0 0 0.2 0"/>
<feBlend mode="normal" in2="shape" result="effect2_innerShadow_6_11202"/>
</filter>
<linearGradient id="paint0_linear_6_11202" x1="114.819" y1="50.0126" x2="114.819" y2="79.0126" gradientUnits="userSpaceOnUse">
<stop stop-color="#20BCFE"/>
<stop offset="1" stop-color="#005BE3"/>
</linearGradient>
<linearGradient id="paint1_linear_6_11202" x1="114.819" y1="40.0126" x2="114.819" y2="89.0126" gradientUnits="userSpaceOnUse">
<stop stop-color="#20BCFE"/>
<stop offset="1" stop-color="#005BE3"/>
</linearGradient>
</defs>
</svg>
