<svg width="53" height="54" viewBox="0 0 53 54" fill="none" xmlns="http://www.w3.org/2000/svg">
<g clip-path="url(#clip0_149_9343)">
<path d="M0 7.2605C0 3.25064 3.2039 0 7.15612 0H45.8439C49.7961 0 53 3.25064 53 7.2605V46.7395C53 50.7494 49.7961 54 45.8439 54H7.15612C3.2039 54 0 50.7494 0 46.7395V7.2605Z" fill="#00A0E3"/>
<path fill-rule="evenodd" clip-rule="evenodd" d="M37.2441 16.0887C34.5258 12.8787 30.6678 11.1062 25.8728 11.3544C16.8113 11.8234 9.74883 21.0746 11.4686 30.2082C12.4334 35.332 15.6289 38.9126 19.4561 40.8996C23.3847 42.9394 27.6144 43.122 30.3659 41.9163C31.9411 41.2261 33.7668 41.9687 34.4436 43.5751C35.1205 45.1815 34.3922 47.0433 32.817 47.7335C28.0057 49.8418 21.8203 49.232 16.6392 46.542C11.3567 43.7993 6.74795 38.713 5.37137 31.4022C2.94933 18.5389 12.6838 5.69741 25.5581 5.03103C32.1978 4.68736 37.9299 7.21127 41.9431 11.9505C45.9057 16.63 48 23.2268 48 30.8052C48 32.5536 46.6101 33.9709 44.8957 33.9709C43.1812 33.9709 41.7914 32.5536 41.7914 30.8052C41.7914 24.3638 40.013 19.3585 37.2441 16.0887Z" fill="#E31E24"/>
<path fill-rule="evenodd" clip-rule="evenodd" d="M25.5089 4.03163C32.4482 3.68058 38.4745 6.26485 42.6916 11.1323C46.8449 15.926 49 22.6349 49 30.2564C49 32.4139 47.2452 34.163 45.0806 34.163C42.916 34.163 41.1612 32.4139 41.1612 30.2564C41.1612 24.0381 39.405 19.293 36.7588 16.2388C34.1766 13.2584 30.5164 11.6015 25.9063 11.8347C17.2347 12.2734 10.4391 20.9636 12.0874 29.5197C13.01 34.3086 16.0596 37.6573 19.741 39.5255C23.5501 41.4584 27.5755 41.5868 30.0954 40.5076C32.0841 39.6558 34.3891 40.5723 35.2437 42.5545C36.0983 44.5368 35.1788 46.8343 33.19 47.6861C28.0697 49.879 21.5752 49.2237 16.1845 46.4882C10.6656 43.6876 5.83173 38.4807 4.38925 30.9931C1.85426 17.8344 12.0235 4.71385 25.5089 4.03163ZM41.5051 12.1536C37.6151 7.66373 32.0621 5.26475 25.5884 5.59225C13.0664 6.22573 3.5711 18.4596 5.92888 30.6984C7.26722 37.6455 11.7436 42.4811 16.8958 45.0956C21.9714 47.6713 27.9719 48.2201 32.5711 46.2504C33.7644 45.7393 34.3161 44.3608 33.8033 43.1715C33.2906 41.9821 31.9076 41.4322 30.7143 41.9433C27.6758 43.2446 23.1568 43.0123 19.0297 40.918C14.9797 38.8628 11.5741 35.142 10.5478 29.8144C8.72196 20.3369 16.1933 10.7615 25.8268 10.2741C30.9031 10.0173 35.0364 11.8599 37.9454 15.2175C40.8926 18.6192 42.729 23.7568 42.729 30.2564C42.729 31.5509 43.7818 32.6003 45.0806 32.6003C46.3794 32.6003 47.4322 31.5509 47.4322 30.2564C47.4322 22.915 45.3566 16.5991 41.5051 12.1536Z" fill="#F2F7FF"/>
<path d="M41 42C41 45.3137 38.3137 48 35 48C31.6863 48 29 45.3137 29 42C29 38.6863 31.6863 36 35 36C38.3137 36 41 38.6863 41 42Z" fill="#E31E24"/>
<path fill-rule="evenodd" clip-rule="evenodd" d="M35 46.5C37.4853 46.5 39.5 44.4853 39.5 42C39.5 39.5147 37.4853 37.5 35 37.5C32.5147 37.5 30.5 39.5147 30.5 42C30.5 44.4853 32.5147 46.5 35 46.5ZM35 48C38.3137 48 41 45.3137 41 42C41 38.6863 38.3137 36 35 36C31.6863 36 29 38.6863 29 42C29 45.3137 31.6863 48 35 48Z" fill="#F2F7FF"/>
<path fill-rule="evenodd" clip-rule="evenodd" d="M26.5563 18C27.3024 18 27.9073 18.597 27.9073 19.3333V25.1111H33.649C34.3951 25.1111 35 25.7081 35 26.4444C35 27.1808 34.3951 27.7778 33.649 27.7778H27.9073V33.6667C27.9073 34.403 27.3024 35 26.5563 35C25.8102 35 25.2053 34.403 25.2053 33.6667V27.7778H19.351C18.6049 27.7778 18 27.1808 18 26.4444C18 25.7081 18.6049 25.1111 19.351 25.1111H25.2053V19.3333C25.2053 18.597 25.8102 18 26.5563 18Z" fill="#009846"/>
<path fill-rule="evenodd" clip-rule="evenodd" d="M24.9299 19.6981C24.9299 18.7603 25.6571 18 26.5541 18C27.4512 18 28.1783 18.7603 28.1783 19.6981V25.2453H33.3758C34.2728 25.2453 35 26.0056 35 26.9434C35 27.8812 34.2728 28.6415 33.3758 28.6415H28.1783V34.3019C28.1783 35.2397 27.4512 36 26.5541 36C25.6571 36 24.9299 35.2397 24.9299 34.3019V28.6415H19.6242C18.7272 28.6415 18 27.8812 18 26.9434C18 26.0056 18.7272 25.2453 19.6242 25.2453H24.9299V19.6981ZM26.5541 18.6792C26.0159 18.6792 25.5796 19.1354 25.5796 19.6981V25.9245H19.6242C19.086 25.9245 18.6497 26.3807 18.6497 26.9434C18.6497 27.5061 19.086 27.9623 19.6242 27.9623H25.5796V34.3019C25.5796 34.8646 26.0159 35.3208 26.5541 35.3208C27.0924 35.3208 27.5287 34.8646 27.5287 34.3019V27.9623H33.3758C33.914 27.9623 34.3503 27.5061 34.3503 26.9434C34.3503 26.3807 33.914 25.9245 33.3758 25.9245H27.5287V19.6981C27.5287 19.1354 27.0924 18.6792 26.5541 18.6792Z" fill="#F2F7FF"/>
</g>
<defs>
<clipPath id="clip0_149_9343">
<rect width="53" height="54" fill="white"/>
</clipPath>
</defs>
</svg>
