<svg width="19" height="18" viewBox="0 0 19 18" fill="none" xmlns="http://www.w3.org/2000/svg">
<path fill-rule="evenodd" clip-rule="evenodd" d="M2.83998 6.85637C4.6273 10.7483 7.80779 13.8424 11.7615 15.519L11.774 15.5243L12.5378 15.8648C13.5105 16.2981 14.6537 15.9903 15.2773 15.1273L16.5517 13.3635C16.6295 13.2558 16.6095 13.106 16.506 13.0225L14.2813 11.2277C14.1707 11.1385 14.008 11.1593 13.9234 11.2734L13.0576 12.4418C12.8473 12.7256 12.4675 12.8242 12.1458 12.6786C9.18938 11.3406 6.81367 8.96492 5.47574 6.00852C5.33012 5.68676 5.42872 5.30701 5.71247 5.09673L6.88085 4.23087C6.99502 4.14626 7.0158 3.98363 6.92657 3.87304L5.13153 1.64799C5.0481 1.54458 4.89836 1.52449 4.79063 1.60227L3.01733 2.88242C2.14854 3.50961 1.84259 4.66246 2.28605 5.63791L2.83939 6.85507C2.83959 6.8555 2.83979 6.85594 2.83998 6.85637ZM11.1696 16.8973C6.87362 15.0737 3.41825 11.7107 1.47621 7.48096L1.47504 7.47841L0.920536 6.2587C0.181436 4.63295 0.691364 2.71154 2.13935 1.66622L3.91264 0.386066C4.66676 -0.158341 5.71499 -0.0177363 6.29898 0.706157L8.09403 2.9312C8.71858 3.70537 8.57311 4.84377 7.77395 5.43601L7.10445 5.93216C8.23537 8.12655 10.0277 9.91894 12.2221 11.0499L12.7183 10.3803C13.3105 9.58118 14.4489 9.43571 15.2231 10.0603L17.4478 11.8551C18.172 12.4392 18.3124 13.4879 17.7675 14.242L16.4931 16.0057C15.4538 17.4442 13.5484 17.9572 11.9274 17.2349L11.1696 16.8973Z" fill="url(#paint0_linear_149_9354)"/>
<defs>
<linearGradient id="paint0_linear_149_9354" x1="9.34155" y1="0.0548859" x2="9.34155" y2="17.5599" gradientUnits="userSpaceOnUse">
<stop stop-color="#20BCFE"/>
<stop offset="1" stop-color="#005BE3"/>
</linearGradient>
</defs>
</svg>
